<svg width="638" height="77" viewBox="0 0 638 77" xmlns="http://www.w3.org/2000/svg"><g fill="#fff" stroke="#000"><path d="M86.25 62.664q-.56 0-1.19-.21-.63-.21-1.19-.56-.56-.35-.945-.875-.385-.525-.385-1.155v-33.95h-2.1q-1.26 0-2.415-.28t-1.96-.945q-.805-.665-.805-1.925 0-1.54.98-2.38.98-.84 2.45-.84h16.1q1.12 0 1.715.98t.595 1.96q0 1.26-.595 1.925T95 25.424q-.91.35-1.995.42t-1.995.07h-.56v33.46q0 1.61-1.4 2.45-1.4.84-2.8.84zM119.22 62.664q-1.19 0-1.89-.665t-1.05-1.61q-.35-.945-.455-2.1-.105-1.155-.105-2.065v-10.15q0-.91-.175-1.365-.175-.455-.735-.455h-7.49q-.7 0-.98.21t-.28.91v9.94q0 .98-.14 2.275t-.56 2.415q-.42 1.12-1.12 1.89-.7.77-1.82.77-1.26 0-2.1-.595-.84-.595-1.295-1.575-.455-.98-.63-2.31t-.175-2.87v-30.87q0-.42.175-1.225.175-.805.595-1.645t1.19-1.435q.77-.595 2.03-.595 1.05 0 1.785.49.735.49 1.19 1.26.455.77.665 1.645.21.875.21 1.645v12.25q0 .56.175.98.175.42.735.42l7.98.07q.35 0 .56-.175.21-.175.21-1.155v-12.11q0-2.66.84-3.99t2.31-1.33q.77 0 1.575.28.805.28 1.505.945.7.665 1.155 1.715.455 1.05.455 2.59v31.22q0 .98-.245 2.1t-.77 2.065q-.525.945-1.365 1.575t-1.96.63zM127.97 62.594q-.77 0-1.61-.315-.84-.315-.84-1.295 0-.7.665-1.26t1.855-.56q.49 0 .735-.385t.245-.875v-33.6q0-.56-.56-.945-.56-.385-1.12-.385-1.47 0-1.96-.56t-.49-1.33q0-.98 1.645-1.365t6.265-.385q2.1 0 3.395.07t2.03.21q.735.14 1.015.385.28.245.28.595 0 .98-.805 1.61-.805.63-1.435.84-.77.28-.77 1.33v33.53q0 .35.07.805.07.455.42.595.7.21 1.225.35.525.14.735.28.35.35.35.84 0 .91-.56 1.33-.42.35-1.89.42t-3.29.14q-1.61.07-3.255 0-1.645-.07-2.345-.07zM152.75 63.294q-2.17 0-4.235-.805-2.065-.805-3.64-2.135-1.575-1.33-2.555-3.045-.98-1.715-.98-3.535 0-2.1 1.19-3.465 1.19-1.365 3.01-1.365 1.61 0 2.03 1.05.42 1.05.42 2.45 0 2.59.945 3.745.945 1.155 3.115 1.155 4.48 0 4.48-4.55 0-1.47-.455-2.73t-1.19-2.31q-.735-1.05-1.645-2.03-.91-.98-1.89-1.89-5.04-5.04-7.175-8.4-2.135-3.36-2.135-6.16 0-4.83 2.975-7.56 2.975-2.73 8.155-2.73 1.82 0 3.605.595t3.22 1.505q1.435.91 2.345 2.065.91 1.155.91 2.345 0 2.1-1.225 3.815-1.225 1.715-3.045 1.715-.84 0-1.785-.7t-1.015-1.89q-.14-2.94-3.29-2.94-2.94 0-2.94 3.36 0 1.05.28 2.065t1.015 2.205q.735 1.19 1.96 2.625t3.115 3.325q2.31 2.31 3.85 4.13 1.54 1.82 2.485 3.36.945 1.54 1.33 2.87.385 1.33.385 2.66 0 2.45-.875 4.515-.875 2.065-2.415 3.535-1.54 1.47-3.675 2.31-2.135.84-4.655.84zM199.58 63.364q-3.22 0-5.81-1.54-2.59-1.54-4.41-4.34-1.82-2.8-2.835-6.685t-1.015-8.575q0-4.97 1.085-9.205t3.08-7.35q1.995-3.115 4.725-4.865 2.73-1.75 5.95-1.75 2.17 0 4.06.77 1.89.77 3.325 2.135 1.435 1.365 2.24 3.15.805 1.785.805 3.885 0 3.99-2.87 3.99-1.61 0-2.695-1.26-1.085-1.26-1.155-3.15-.14-2.87-2.73-2.87-1.75 0-3.115 1.225-1.365 1.225-2.345 3.43-.98 2.205-1.505 5.25-.525 3.045-.525 6.755 0 6.65 1.645 10.395 1.645 3.745 4.865 3.745 1.54 0 2.59-.84 1.05-.84 1.05-2.1 0-.7.35-1.365t.91-1.19q.56-.525 1.26-.84.7-.315 1.4-.315 1.26 0 2.03 1.085.77 1.085.77 2.905 0 1.96-.875 3.675-.875 1.715-2.415 3.01-1.54 1.295-3.57 2.065t-4.27.77zM227.93 19.194q2.24 0 3.71.7 1.47.7 2.03 1.68.42.84 1.225 3.71.805 2.87 1.75 6.79t1.96 8.33q1.015 4.41 1.855 8.33.84 3.92 1.365 6.825.525 2.905.525 3.745 0 1.4-1.47 2.485t-3.15 1.085q-1.68 0-2.31-.98-.28-.42-.7-1.47-.42-1.05-.84-2.45-.42-1.4-.805-2.94-.385-1.54-.665-3.01-.28-1.4-.805-1.715-.525-.315-1.225-.315-2.03 0-3.57-.035t-2.31-.035q-1.4 0-2.065.315t-.875 1.085l-1.82 7q-.56 2.03-1.785 3.255-1.225 1.225-2.765 1.225-2.52 0-2.52-3.5 0-1.19.28-3.325.28-2.135.735-4.83.455-2.695 1.12-5.74.665-3.045 1.4-6.16.735-3.115 1.505-6.055.77-2.94 1.54-5.32.84-2.66 1.715-4.34.875-1.68 1.855-2.66.98-.98 2.205-1.33 1.225-.35 2.905-.35zm-3.15 17.08q-.77 3.99-1.015 5.495-.245 1.505.385 1.505h6.16q.56 0 .28-1.365t-.84-4.235q-.14-.77-.35-2.555-.21-1.785-.525-3.605-.315-1.82-.665-3.255-.35-1.435-.77-1.435-.35 0-.77 1.26-.42 1.26-.805 2.905-.385 1.645-.665 3.185t-.42 2.1zM247.53 62.664q-.77 0-1.365-.56t-.595-1.33v-36.82q0-.77.105-1.54t.525-1.4q.42-.63 1.225-1.05.805-.42 2.205-.42 1.61 0 2.765 1.26t1.155 2.66v30.73q0 1.26.49 1.575.49.315 1.12.315 1.19 0 2.135-.035.945-.035 1.82-.07.875-.035 1.82-.07.945-.035 2.135-.035.98 0 1.33 1.015.35 1.015.35 1.995 0 1.4-.875 2.625t-1.855 1.225h-3.29l-5.81-.07zM270 62.664q-.77 0-1.365-.56t-.595-1.33v-36.82q0-.77.105-1.54t.525-1.4q.42-.63 1.225-1.05.805-.42 2.205-.42 1.61 0 2.765 1.26t1.155 2.66v30.73q0 1.26.49 1.575.49.315 1.12.315 1.19 0 2.135-.035.945-.035 1.82-.07.875-.035 1.82-.07.945-.035 2.135-.035.98 0 1.33 1.015.35 1.015.35 1.995 0 1.4-.875 2.625t-1.855 1.225h-3.29l-5.81-.07zM298.84 63.294q-2.17 0-4.235-.805-2.065-.805-3.64-2.135-1.575-1.33-2.555-3.045-.98-1.715-.98-3.535 0-2.1 1.19-3.465 1.19-1.365 3.01-1.365 1.61 0 2.03 1.05.42 1.05.42 2.45 0 2.59.945 3.745.945 1.155 3.115 1.155 4.48 0 4.48-4.55 0-1.47-.455-2.73t-1.19-2.31q-.735-1.05-1.645-2.03-.91-.98-1.89-1.89-5.04-5.04-7.175-8.4-2.135-3.36-2.135-6.16 0-4.83 2.975-7.56 2.975-2.73 8.155-2.73 1.82 0 3.605.595t3.22 1.505q1.435.91 2.345 2.065.91 1.155.91 2.345 0 2.1-1.225 3.815-1.225 1.715-3.045 1.715-.84 0-1.785-.7t-1.015-1.89q-.14-2.94-3.29-2.94-2.94 0-2.94 3.36 0 1.05.28 2.065t1.015 2.205q.735 1.19 1.96 2.625t3.115 3.325q2.31 2.31 3.85 4.13 1.54 1.82 2.485 3.36.945 1.54 1.33 2.87.385 1.33.385 2.66 0 2.45-.875 4.515-.875 2.065-2.415 3.535-1.54 1.47-3.675 2.31-2.135.84-4.655.84zM336.78 62.664q-1.89 0-3.115-.665-1.225-.665-1.225-2.765v-34.58q0-2.73 1.995-3.955t5.145-1.225l11.9.07q.77 0 1.4.805.63.805.63 1.785 0 .49-.105 1.225-.105.735-.315 1.4-.21.665-.525 1.12-.315.455-.735.455l-9.59-.07q-1.82 0-1.82 1.82v10.43q0 .7.455 1.015.455.315 1.155.315l7.42-.21q.56 0 .98.35.42.35.77.945.35.595.525 1.225.175.63.175 1.19 0 2.73-2.66 2.8l-7.42.21q-.56 0-.98.42-.42.42-.42.98v11.55q0 1.12-.315 1.785-.315.665-.84 1.015-.525.35-1.19.455-.665.105-1.295.105zM369.54 63.294q-3.85 0-6.685-1.855-2.835-1.855-4.69-4.9-1.855-3.045-2.765-6.86-.91-3.815-.91-7.735 0-3.92.84-8.015.84-4.095 2.66-7.42 1.82-3.325 4.69-5.46t6.93-2.135q3.71 0 6.37 1.925t4.375 5.145q1.715 3.22 2.555 7.455.84 4.235.84 8.855 0 3.85-.84 7.63t-2.555 6.755q-1.715 2.975-4.41 4.795-2.695 1.82-6.405 1.82zm0-5.6q2.1 0 3.395-1.575t2.03-3.92q.735-2.345 1.015-5.145.28-2.8.28-5.32 0-2.52-.175-5.39-.175-2.87-.875-5.32t-2.03-4.06q-1.33-1.61-3.57-1.61-2.17 0-3.57 1.96t-2.205 4.655q-.805 2.695-1.085 5.495-.28 2.8-.28 4.48 0 1.68.21 4.375.21 2.695.945 5.215t2.135 4.34q1.4 1.82 3.78 1.82zM406.36 62.664q-.77 0-1.33-.315t-.945-.77q-.385-.455-.665-.98-.28-.525-.49-1.015-.28-.63-.84-1.855-.56-1.225-1.225-2.73t-1.435-3.045q-.77-1.54-1.54-2.835t-1.505-2.1q-.735-.805-1.295-.805h-.7q-.35 0-.63.525t-.28 1.365v9.8q0 2.17-1.085 3.465t-3.115 1.295q-1.05 0-1.75-.525t-1.085-1.295q-.385-.77-.525-1.575-.14-.805-.14-1.435v-32.06q0-1.82.14-3.01.14-1.19.63-1.925.49-.735 1.4-1.015.91-.28 2.45-.28h5.81q2.31 0 4.515.7 2.205.7 3.955 2.135 1.75 1.435 2.8 3.71 1.05 2.275 1.05 5.425 0 2.66-.665 4.76-.665 2.1-1.715 3.64t-2.275 2.52q-1.225.98-2.415 1.4-.42.14-.42.56 0 .28.35.63 1.47 1.47 2.975 3.08 1.505 1.61 2.765 3.43 1.26 1.82 2.065 3.885.805 2.065.805 4.445 0 1.4-1.19 2.1-1.19.7-2.45.7zm-9.8-23.17q2.1 0 3.57-2.275 1.47-2.275 1.47-5.705 0-2.73-1.05-4.13t-3.78-1.54l-1.68-.07q-.91-.07-1.12.28-.21.35-.21 1.4v11.13q0 .91 1.26.91zM436.74 62.664q-1.26 0-2.415-.28t-2.03-.98q-.875-.7-1.4-1.89-.525-1.19-.525-3.01v-29.96q0-1.89.665-3.255t1.75-2.24q1.085-.875 2.555-1.26 1.47-.385 3.08-.385h3.15q3.01 0 5.81 1.365t4.935 3.99q2.135 2.625 3.43 6.44 1.295 3.815 1.295 8.645 0 5.11-1.33 9.345t-3.57 7.21q-2.24 2.975-5.25 4.62t-6.3 1.645zm3.5-6.72q1.82 0 3.43-1.155t2.765-3.29q1.155-2.135 1.82-5.145t.665-6.72q0-6.65-2.1-10.01-2.1-3.36-5.46-3.36h-1.05q-1.19 0-1.575.525t-.385 2.275v24.36q0 1.4.245 1.96t.735.56zM472.44 62.944q-3.15 0-5.705-1.155t-4.305-3.22q-1.75-2.065-2.695-4.97-.945-2.905-.945-6.405v-21.63q0-.7.14-1.75t.56-1.995q.42-.945 1.155-1.61.735-.665 1.855-.665 2.31 0 3.29 1.19t.98 4.97v24.395q0 1.715.525 3.08t1.75 2.24q1.225.875 3.675.875 2.31 0 3.5-1.33t1.715-3.325q.525-1.995.56-4.375.035-2.38.035-4.48v-17.29q0-.7.14-1.75t.525-1.995q.385-.945 1.05-1.645.665-.7 1.785-.7 2.17 0 3.29 1.435t1.12 4.585v20.02q0 3.99-.875 7.21-.875 3.22-2.66 5.495-1.785 2.275-4.375 3.535-2.59 1.26-6.09 1.26zM492.11 62.664q-1.96 0-2.695-1.54-.735-1.54-.735-5.67v-29.96q0-3.01.91-4.48.91-1.47 3.29-1.47 1.33 0 2.065.735.735.735.735 1.365 0 1.12.035 1.75.035.63.385.63.21 0 .63-.77.42-.77 1.26-1.715.84-.945 2.1-1.715 1.26-.77 3.15-.77 2.31 0 4.2.875 1.89.875 3.255 2.415t2.135 3.605q.77 2.065.77 4.445 0 2.8-.77 4.655-.77 1.855-1.96 2.975t-2.52 1.68q-1.33.56-2.52.77-1.19.21-1.96.28-.77.07-.77.21 0 .14.875.21.875.07 2.205.245t2.835.7q1.505.525 2.835 1.61t2.205 2.87q.875 1.785.875 4.585t-1.26 4.935q-1.26 2.135-3.255 3.605-1.995 1.47-4.445 2.205-2.45.735-4.76.735zm7.98-25.27q2.38 0 3.955-1.82 1.575-1.82 1.575-4.83 0-2.1-.945-3.5t-2.835-1.4q-1.26 0-2.24.49-.98.49-1.61 1.295-.63.805-.98 1.82-.35 1.015-.35 2.065v3.64q0 .98.385 1.61.385.63.945.63zm.49 18.9q2.52 0 4.445-1.4 1.925-1.4 1.925-4.48 0-3.08-2.1-4.305-2.1-1.225-5.11-1.225h-1.75q-1.33 0-1.33 2.8v6.09q0 1.68.315 2.1.315.42 1.645.42zM531.45 19.194q2.24 0 3.71.7 1.47.7 2.03 1.68.42.84 1.225 3.71.805 2.87 1.75 6.79t1.96 8.33q1.015 4.41 1.855 8.33.84 3.92 1.365 6.825.525 2.905.525 3.745 0 1.4-1.47 2.485t-3.15 1.085q-1.68 0-2.31-.98-.28-.42-.7-1.47-.42-1.05-.84-2.45-.42-1.4-.805-2.94-.385-1.54-.665-3.01-.28-1.4-.805-1.715-.525-.315-1.225-.315-2.03 0-3.57-.035t-2.31-.035q-1.4 0-2.065.315t-.875 1.085l-1.82 7q-.56 2.03-1.785 3.255-1.225 1.225-2.765 1.225-2.52 0-2.52-3.5 0-1.19.28-3.325.28-2.135.735-4.83.455-2.695 1.12-5.74.665-3.045 1.4-6.16.735-3.115 1.505-6.055.77-2.94 1.54-5.32.84-2.66 1.715-4.34.875-1.68 1.855-2.66.98-.98 2.205-1.33 1.225-.35 2.905-.35zm-3.15 17.08q-.77 3.99-1.015 5.495-.245 1.505.385 1.505h6.16q.56 0 .28-1.365t-.84-4.235q-.14-.77-.35-2.555-.21-1.785-.525-3.605-.315-1.82-.665-3.255-.35-1.435-.77-1.435-.35 0-.77 1.26-.42 1.26-.805 2.905-.385 1.645-.665 3.185t-.42 2.1zM550.56 62.594q-.77 0-1.61-.315-.84-.315-.84-1.295 0-.7.665-1.26t1.855-.56q.49 0 .735-.385t.245-.875v-33.6q0-.56-.56-.945-.56-.385-1.12-.385-1.47 0-1.96-.56t-.49-1.33q0-.98 1.645-1.365t6.265-.385q2.1 0 3.395.07t2.03.21q.735.14 1.015.385.28.245.28.595 0 .98-.805 1.61-.805.63-1.435.84-.77.28-.77 1.33v33.53q0 .35.07.805.07.455.42.595.7.21 1.225.35.525.14.735.28.35.35.35.84 0 .91-.56 1.33-.42.35-1.89.42t-3.29.14q-1.61.07-3.255 0-1.645-.07-2.345-.07z" stroke-width=".07"/></g></svg>